# xmcd
#
# Track frame offsets:
#	180
#	14585
#	31203
#	45805
#	62428
#	76530
#	90440
#	107564
#	121649
#	139191
#	151170
#
# Disc length: 2187 seconds
#
# Revision: 1
# Processed by: cddbd v1.5.1PL2 Copyright (c) Steve Scherf et al.
# Submitted via: audiograbber 1.83.01
#
DISCID=6b08890b
DTITLE=Roger Rogers Band - Some People Got It
DYEAR=1994
DGENRE=Blues
TTITLE0=Remote Ain't Workin'
TTITLE1=Wonderful
TTITLE2=It's My Life
TTITLE3=The End
TTITLE4=All Momma's Children
TTITLE5=Can't Stand It
TTITLE6=Some People Got It
TTITLE7=Problems
TTITLE8=Lonesome Whistle Blues
TTITLE9=It Ain't Right
TTITLE10=Safe Sex Blues
EXTD=
EXTT0=
EXTT1=
EXTT2=
EXTT3=
EXTT4=
EXTT5=
EXTT6=
EXTT7=
EXTT8=
EXTT9=
EXTT10=
PLAYORDER=
